<svg width="1653" height="993" xmlns="http://www.w3.org/2000/svg" xmlns:xlink="http://www.w3.org/1999/xlink" overflow="hidden"><defs><clipPath id="clip0"><rect x="1434" y="210" width="1653" height="993"/></clipPath><clipPath id="clip1"><rect x="1435" y="211" width="1650" height="990"/></clipPath><clipPath id="clip2"><rect x="1435" y="211" width="1650" height="990"/></clipPath><clipPath id="clip3"><rect x="1545" y="261" width="1493" height="732"/></clipPath><clipPath id="clip4"><rect x="1545" y="261" width="1493" height="732"/></clipPath><clipPath id="clip5"><rect x="1435" y="211" width="1650" height="990"/></clipPath><clipPath id="clip6"><rect x="1435" y="211" width="1650" height="990"/></clipPath><clipPath id="clip7"><rect x="1435" y="211" width="1650" height="990"/></clipPath><clipPath id="clip8"><rect x="1435" y="211" width="1650" height="990"/></clipPath><clipPath id="clip9"><rect x="1435" y="211" width="1650" height="990"/></clipPath><clipPath id="clip10"><rect x="1435" y="211" width="1650" height="990"/></clipPath><clipPath id="clip11"><rect x="1435" y="211" width="1650" height="990"/></clipPath><clipPath id="clip12"><rect x="1435" y="211" width="1650" height="990"/></clipPath><clipPath id="clip13"><rect x="1435" y="211" width="1650" height="990"/></clipPath><clipPath id="clip14"><rect x="1435" y="211" width="1650" height="990"/></clipPath><clipPath id="clip15"><rect x="1435" y="211" width="1650" height="990"/></clipPath><clipPath id="clip16"><rect x="1435" y="211" width="1650" height="990"/></clipPath><clipPath id="clip17"><rect x="1435" y="211" width="1650" height="990"/></clipPath><clipPath id="clip18"><rect x="1435" y="211" width="1650" height="990"/></clipPath><clipPath id="clip19"><rect x="1435" y="211" width="1650" height="990"/></clipPath><clipPath id="clip20"><rect x="1435" y="211" width="1650" height="990"/></clipPath><clipPath id="clip21"><rect x="1435" y="211" width="1650" height="990"/></clipPath><clipPath id="clip22"><rect x="1435" y="211" width="1650" height="990"/></clipPath><clipPath id="clip23"><rect x="1435" y="211" width="1650" height="990"/></clipPath><clipPath id="clip24"><rect x="1435" y="211" width="1650" height="990"/></clipPath><clipPath id="clip25"><rect x="1435" y="211" width="1650" height="990"/></clipPath></defs><g clip-path="url(#clip0)" transform="translate(-1434 -210)"><rect x="1435" y="211" width="1650" height="990" fill="#FFFFFF"/><g clip-path="url(#clip1)"><path d="M1545.5 886.529 3034.5 886.529M1545.5 782.526 3034.5 782.526M1545.5 678.522 3034.5 678.522M1545.5 573.519 3034.5 573.519M1545.5 469.516 3034.5 469.516M1545.5 365.512 3034.5 365.512M1545.5 261.5 3034.5 261.5" stroke="#D9D9D9" stroke-width="3.4375" stroke-linejoin="round" stroke-miterlimit="10" fill="none"/></g><g clip-path="url(#clip2)"><path d="M1545.5 990.5 3034.5 990.5" stroke="#D9D9D9" stroke-width="3.4375" stroke-linejoin="round" stroke-miterlimit="10" fill="none" fill-rule="evenodd"/></g><g clip-path="url(#clip3)"><path d="M1651 512 1864.06 449 2077.07 491.016 2290.08 512 2503.08 512 2715.09 491.016 2928 470.015" stroke="#4472C4" stroke-width="10.3125" stroke-linecap="round" stroke-linejoin="round" stroke-miterlimit="10" fill="none"/></g><g clip-path="url(#clip4)"><path d="M1651 303 1864.06 449 2077.07 366.012 2290.08 345.011 2503.08 324.011 2715.09 324.011 2928 449" stroke="#ED7D31" stroke-width="10.3125" stroke-linecap="round" stroke-linejoin="round" stroke-miterlimit="10" fill="none"/></g><g clip-path="url(#clip5)"><text fill="#595959" font-family="Calibri,Calibri_MSFontService,sans-serif" font-weight="400" font-size="41" transform="matrix(1 0 0 1 1485.85 1002)">0</text></g><g clip-path="url(#clip6)"><text fill="#595959" font-family="Calibri,Calibri_MSFontService,sans-serif" font-weight="400" font-size="41" transform="matrix(1 0 0 1 1485.85 898)">5</text></g><g clip-path="url(#clip7)"><text fill="#595959" font-family="Calibri,Calibri_MSFontService,sans-serif" font-weight="400" font-size="41" transform="matrix(1 0 0 1 1464.95 794)">10</text></g><g clip-path="url(#clip8)"><text fill="#595959" font-family="Calibri,Calibri_MSFontService,sans-serif" font-weight="400" font-size="41" transform="matrix(1 0 0 1 1464.95 690)">15</text></g><g clip-path="url(#clip9)"><text fill="#595959" font-family="Calibri,Calibri_MSFontService,sans-serif" font-weight="400" font-size="41" transform="matrix(1 0 0 1 1464.95 586)">20</text></g><g clip-path="url(#clip10)"><text fill="#595959" font-family="Calibri,Calibri_MSFontService,sans-serif" font-weight="400" font-size="41" transform="matrix(1 0 0 1 1464.95 481)">25</text></g><g clip-path="url(#clip11)"><text fill="#595959" font-family="Calibri,Calibri_MSFontService,sans-serif" font-weight="400" font-size="41" transform="matrix(1 0 0 1 1464.95 377)">30</text></g><g clip-path="url(#clip12)"><text fill="#595959" font-family="Calibri,Calibri_MSFontService,sans-serif" font-weight="400" font-size="41" transform="matrix(1 0 0 1 1464.95 273)">35</text></g><g clip-path="url(#clip13)"><text fill="#595959" font-family="Calibri,Calibri_MSFontService,sans-serif" font-weight="400" font-size="41" transform="matrix(1 0 0 1 1630.52 1055)">21</text></g><g clip-path="url(#clip14)"><text fill="#595959" font-family="Calibri,Calibri_MSFontService,sans-serif" font-weight="400" font-size="41" transform="matrix(1 0 0 1 1843.34 1055)">22</text></g><g clip-path="url(#clip15)"><text fill="#595959" font-family="Calibri,Calibri_MSFontService,sans-serif" font-weight="400" font-size="41" transform="matrix(1 0 0 1 2056.16 1055)">23</text></g><g clip-path="url(#clip16)"><text fill="#595959" font-family="Calibri,Calibri_MSFontService,sans-serif" font-weight="400" font-size="41" transform="matrix(1 0 0 1 2268.98 1055)">24</text></g><g clip-path="url(#clip17)"><text fill="#595959" font-family="Calibri,Calibri_MSFontService,sans-serif" font-weight="400" font-size="41" transform="matrix(1 0 0 1 2481.79 1055)">25</text></g><g clip-path="url(#clip18)"><text fill="#595959" font-family="Calibri,Calibri_MSFontService,sans-serif" font-weight="400" font-size="41" transform="matrix(1 0 0 1 2694.61 1055)">26</text></g><g clip-path="url(#clip19)"><text fill="#595959" font-family="Calibri,Calibri_MSFontService,sans-serif" font-weight="400" font-size="41" transform="matrix(1 0 0 1 2907.43 1055)">27</text></g><g clip-path="url(#clip20)"><path d="M2047 1135 2135 1135" stroke="#4472C4" stroke-width="10.3125" stroke-linecap="round" stroke-linejoin="round" stroke-miterlimit="10" fill="none" fill-rule="evenodd"/></g><g clip-path="url(#clip21)"><text fill="#595959" font-family="Yu Gothic,Yu Gothic_MSFontService,sans-serif" font-weight="400" font-size="41" transform="matrix(1 0 0 1 2144.25 1147)">系列</text></g><g clip-path="url(#clip22)"><text fill="#595959" font-family="Calibri,Calibri_MSFontService,sans-serif" font-weight="400" font-size="41" transform="matrix(1 0 0 1 2226.75 1147)">1</text></g><g clip-path="url(#clip23)"><path d="M2289 1135 2377 1135" stroke="#ED7D31" stroke-width="10.3125" stroke-linecap="round" stroke-linejoin="round" stroke-miterlimit="10" fill="none" fill-rule="evenodd"/></g><g clip-path="url(#clip24)"><text fill="#595959" font-family="Yu Gothic,Yu Gothic_MSFontService,sans-serif" font-weight="400" font-size="41" transform="matrix(1 0 0 1 2386.1 1147)">系列</text></g><g clip-path="url(#clip25)"><text fill="#595959" font-family="Calibri,Calibri_MSFontService,sans-serif" font-weight="400" font-size="41" transform="matrix(1 0 0 1 2468.6 1147)">2</text></g><rect x="1435.5" y="211.5" width="1650" height="990" stroke="#D9D9D9" stroke-width="3.4375" stroke-linejoin="round" stroke-miterlimit="10" fill="none"/></g></svg>